<?xml version="1.0" encoding="UTF-8"?>
<svg version="1.1" xmlns="http://www.w3.org/2000/svg" width="128" height="128">
<path d="M0 0 C6.56962828 4.29552619 9.78156486 10.29180769 11.71875 17.77734375 C12.40326284 21.366003 13.00740016 24.82337448 12.984375 28.484375 C13.00095712 30.95511083 13.07805134 32.69960384 14 35 C17.07505779 37.56805902 20.41369264 39.25267772 24 41 C25.485 41.99 25.485 41.99 27 43 C27 44.32 27 45.64 27 47 C26.34 47 25.68 47 25 47 C25 48.98 25 50.96 25 53 C21 53 17 53 13 53 C13.99 56.96 13.99 56.96 15 61 C15.99 60.67 16.98 60.34 18 60 C18.165 59.34 18.33 58.68 18.5 58 C18.665 57.34 18.83 56.68 19 56 C19.99 55.67 20.98 55.34 22 55 C21.42636089 58.87206399 19.65894107 61.18465063 17 64 C16.01 64 15.02 64 14 64 C14.0825 65.0725 14.165 66.145 14.25 67.25 C14 71 14 71 12.6875 73.4375 C9.54124274 75.26671934 8.14031114 75.09179913 4.5625 74.9375 C-0.16053897 74.70649035 -0.16053897 74.70649035 -4.125 77.4375 C-4.74375 78.283125 -5.3625 79.12875 -6 80 C-7 81 -7 81 -10.8125 81.1875 C-14.15408921 81.16371645 -16.03598079 80.53311338 -19 79 C-22.38757587 79.18311221 -24.61743359 80.3170404 -27.4375 82.0625 C-30.75994882 84.04152386 -33.08239989 84.60940446 -37 84 C-37.59683594 83.49597656 -38.19367187 82.99195312 -38.80859375 82.47265625 C-41.69176591 80.53512345 -43.4437321 80.79045692 -46.875 81 C-51.74539275 81.13066907 -54.86501308 80.82920158 -59 78 C-61 76 -61 76 -61.125 73.6875 C-59.8206416 70.57153272 -59.10417209 70.28152819 -56.25 68.6875 C-50.69181107 65.54417951 -47.98868763 60.96606289 -46 55 C-46.93972656 54.81824219 -46.93972656 54.81824219 -47.8984375 54.6328125 C-48.71570312 54.46523437 -49.53296875 54.29765625 -50.375 54.125 C-51.18710937 53.96257812 -51.99921875 53.80015625 -52.8359375 53.6328125 C-55 53 -55 53 -57 51 C-57.33 51.66 -57.66 52.32 -58 53 C-58.66 53 -59.32 53 -60 53 C-60.33 51.02 -60.66 49.04 -61 47 C-60.34 47 -59.68 47 -59 47 C-58.855625 46.113125 -58.71125 45.22625 -58.5625 44.3125 C-56.77382218 40.52050303 -56.14099268 40.38055691 -52.5 38.75 C-49.07267785 37.05873738 -49.07267785 37.05873738 -47.0703125 33.95703125 C-46.57770039 31.30816088 -46.27689063 28.6801593 -46 26 C-44.61967465 17.33894444 -43.3217514 10.35258921 -37 4 C-36.51273438 3.51015625 -36.02546875 3.0203125 -35.5234375 2.515625 C-25.83778162 -6.28951671 -10.9951243 -7.01373192 0 0 Z M-36.57421875 7.0546875 C-41.64512588 13.97334983 -42.78666361 21.3495677 -43.78613281 29.7043457 C-44.27760436 33.35332689 -44.60214026 35.4856535 -46.89453125 38.44921875 C-49 40 -49 40 -52.1875 41.5 C-55.06951484 42.70750389 -55.06951484 42.70750389 -56.0625 44.9375 C-56.13797807 47.09578026 -56.13797807 47.09578026 -54.9375 49.1875 C-52.36112677 51.5976556 -50.47675149 51.78270303 -47 52 C-43.88667752 51.33131686 -43.88667752 51.33131686 -42.8125 48.9375 C-42.544375 48.298125 -42.27625 47.65875 -42 47 C-43.36269983 55.7499673 -45.68744511 63.50178173 -52 70 C-55.25 71.8125 -55.25 71.8125 -58 73 C-56.6910428 76.12197478 -56.6910428 76.12197478 -54 78 C-50.71660469 77.99114988 -47.44493635 77.86809011 -44.1640625 77.7421875 C-40.67078257 78.02682512 -39.58208712 78.75720718 -37 81 C-31.69094952 81.98773032 -28.53516955 79.81725056 -24.24609375 76.99609375 C-21.39312809 75.7308655 -19.93970079 76.09510042 -17 77 C-16.34 77.37125 -15.68 77.7425 -15 78.125 C-12.1888817 79.35486426 -10.86991103 79.04996745 -8 78 C-5.24958334 75.58333229 -5.24958334 75.58333229 -3 73 C-2.67 72.67 -2.34 72.34 -2 72 C-0.39148115 72.19630376 1.21229661 72.43212347 2.8125 72.6875 C6.89541695 73.15337079 6.89541695 73.15337079 10.625 71.5625 C14.66266227 64.03776577 10.73060355 53.91133053 9 46 C9.66 46.33 10.32 46.66 11 47 C11.33 47.99 11.66 48.98 12 50 C16.16458199 50.95405572 16.16458199 50.95405572 20.3125 50.3125 C22.11188939 49.09694931 22.11188939 49.09694931 23 47.125 C23.2125 44.86666667 23.2125 44.86666667 21.5 43 C18.98472496 40.81015072 18.98472496 40.81015072 15.44921875 39.44921875 C13.17576377 38.16509925 12.19559781 37.48820337 11.21533203 35.04150391 C10.77514657 32.62903869 10.51436916 30.2563403 10.3125 27.8125 C10.10647801 26.09527279 9.89174329 24.37906667 9.66796875 22.6640625 C9.56274902 21.85098633 9.4575293 21.03791016 9.34912109 20.20019531 C8.68862261 16.03766922 7.23818902 12.54245745 5 9 C4.46246094 8.14921875 4.46246094 8.14921875 3.9140625 7.28125 C0.2649564 2.28515843 -4.77739721 -0.05679918 -10.5625 -1.75 C-20.50182849 -2.76941831 -29.77580962 -0.70101552 -36.57421875 7.0546875 Z " fill="#121212" transform="translate(80,26)"/>
<path d="M0 0 C0.99 0 1.98 0 3 0 C3.185625 0.639375 3.37125 1.27875 3.5625 1.9375 C4.94246056 4.42126213 4.94246056 4.42126213 8.625 4.75 C9.73875 4.8325 10.8525 4.915 12 5 C11.07352941 9.76470588 11.07352941 9.76470588 10.375 12 C9.89781136 14.54500607 10.37739553 16.50958213 11 19 C10.40832031 18.97679688 9.81664063 18.95359375 9.20703125 18.9296875 C4.66198041 18.82588536 1.14059941 18.86291643 -3 21 C-3.12375 19.39125 -3.12375 19.39125 -3.25 17.75 C-4.06700035 13.66499825 -4.9561637 12.65108323 -8 10 C-8 9.34 -8 8.68 -8 8 C-6.02 7.67 -4.04 7.34 -2 7 C-1.34 4.69 -0.68 2.38 0 0 Z M1 5 C0.67 6.32 0.34 7.64 0 9 C-0.99 9 -1.98 9 -3 9 C-2.34 11.64 -1.68 14.28 -1 17 C1.64 16.67 4.28 16.34 7 16 C7.33 13.36 7.66 10.72 8 8 C7.360625 7.87625 6.72125 7.7525 6.0625 7.625 C5.0415625 7.315625 5.0415625 7.315625 4 7 C3.67 6.34 3.34 5.68 3 5 C2.34 5 1.68 5 1 5 Z " fill="#151515" transform="translate(24,11)"/>
<path d="M0 0 C0.99 0.33 1.98 0.66 3 1 C3.28875 1.66 3.5775 2.32 3.875 3 C4.8553382 5.29150599 4.8553382 5.29150599 7.625 5.75 C8.40875 5.8325 9.1925 5.915 10 6 C9.38722388 8.96175123 8.74627478 10.38058783 7 13 C6.83286431 15.62531524 6.83286431 15.62531524 7 18 C5.948125 17.814375 4.89625 17.62875 3.8125 17.4375 C0.42880118 17.04920669 -1.76425888 17.11752515 -5 18 C-5.12375 16.88625 -5.2475 15.7725 -5.375 14.625 C-5.6465813 10.96896323 -5.6465813 10.96896323 -8 9 C-8 8.01 -8 7.02 -8 6 C-6.02 5.67 -4.04 5.34 -2 5 C-2 3.68 -2 2.36 -2 1 C-1.34 0.67 -0.68 0.34 0 0 Z M0 5 C-0.33 5.66 -0.66 6.32 -1 7 C-1.99 7.66 -2.98 8.32 -4 9 C-3.45291273 11.53744315 -3.45291273 11.53744315 -2 14 C1.05272465 14.89830839 1.05272465 14.89830839 4 15 C4.66 12.69 5.32 10.38 6 8 C5.01 7.67 4.02 7.34 3 7 C2.67 6.34 2.34 5.68 2 5 C1.34 5 0.68 5 0 5 Z " fill="#0D0D0D" transform="translate(107,40)"/>
<path d="M0 0 C0.99 0 1.98 0 3 0 C3 1.98 3 3.96 3 6 C4.65 6.33 6.3 6.66 8 7 C7.814375 7.721875 7.62875 8.44375 7.4375 9.1875 C6.98004693 12.12826973 7.26483643 14.14103058 8 17 C6.68 17 5.36 17 4 17 C4.33 18.65 4.66 20.3 5 22 C4.01 22 3.02 22 2 22 C2 20.68 2 19.36 2 18 C0.02 18.99 0.02 18.99 -2 20 C-3 19 -3 19 -3.0625 16.4375 C-3.041875 15.633125 -3.02125 14.82875 -3 14 C-4.32 13.67 -5.64 13.34 -7 13 C-7 12.01 -7 11.02 -7 10 C-6.401875 9.835 -5.80375 9.67 -5.1875 9.5 C-1.81472202 7.18723796 -1.1668452 3.80108663 0 0 Z M0 8 C-1.485 9.98 -1.485 9.98 -3 12 C-1.19038423 13.62831762 -1.19038423 13.62831762 1 15 C1.99 14.67 2.98 14.34 4 14 C4.33 12.35 4.66 10.7 5 9 C3.35 8.67 1.7 8.34 0 8 Z " fill="#0F0F0F" transform="translate(15,50)"/>
<path d="M0 0 C0.99 0.33 1.98 0.66 3 1 C3.33 2.65 3.66 4.3 4 6 C6.97 6.495 6.97 6.495 10 7 C9.690625 7.556875 9.38125 8.11375 9.0625 8.6875 C7.94040889 11.1296983 7.48512053 13.36648855 7 16 C6.67 16.66 6.34 17.32 6 18 C4.9275 17.814375 3.855 17.62875 2.75 17.4375 C-0.40391546 17.0695432 -2.09818492 16.95534657 -5 18 C-5.12375 16.88625 -5.2475 15.7725 -5.375 14.625 C-5.6465813 10.96896323 -5.6465813 10.96896323 -8 9 C-8 8.01 -8 7.02 -8 6 C-6.02 6 -4.04 6 -2 6 C-1.34 4.02 -0.68 2.04 0 0 Z M-4 9 C-3.34 10.65 -2.68 12.3 -2 14 C-0.02 14 1.96 14 4 14 C4.144375 13.38125 4.28875 12.7625 4.4375 12.125 C5 10 5 10 6 8 C4.68 8 3.36 8 2 8 C2 7.34 2 6.68 2 6 C-0.76223278 6 -1.89281454 7.31425163 -4 9 Z " fill="#101010" transform="translate(103,7)"/>
<path d="M0 0 C0.66 0 1.32 0 2 0 C2.2475 0.78375 2.495 1.5675 2.75 2.375 C4.15389099 5.32317108 5.00675737 5.9024777 8 7 C7.566875 7.804375 7.566875 7.804375 7.125 8.625 C5.83288192 11.35280484 4.91441408 14.12612718 4 17 C1.83125748 16.49396008 0.00032373 16.00016187 -2 15 C-3.66619446 14.9603287 -5.33391013 14.95615553 -7 15 C-7.33 15.99 -7.66 16.98 -8 18 C-8.99 18 -9.98 18 -11 18 C-10.34 16.68 -9.68 15.36 -9 14 C-8.34 14 -7.68 14 -7 14 C-6.91995518 10.4780279 -6.95994298 7.38018531 -8 4 C-7.05125 3.896875 -6.1025 3.79375 -5.125 3.6875 C-1.70892499 3.31460705 -1.70892499 3.31460705 0 0 Z M0 4 C-0.33 4.66 -0.66 5.32 -1 6 C-1.99 6.66 -2.98 7.32 -4 8 C-3.67 9.32 -3.34 10.64 -3 12 C-1.35 12.33 0.3 12.66 2 13 C2.66 11.35 3.32 9.7 4 8 C3.34 7.67 2.68 7.34 2 7 C1.34 6.01 0.68 5.02 0 4 Z " fill="#0C0C0C" transform="translate(105,87)"/>
<path d="M0 0 C0.99 0.33 1.98 0.66 3 1 C3 1.99 3 2.98 3 4 C4.32 4.33 5.64 4.66 7 5 C6.690625 5.5775 6.38125 6.155 6.0625 6.75 C4.80714968 9.21905868 4.80714968 9.21905868 4 13 C1.03 12.67 -1.94 12.34 -5 12 C-4.979375 11.236875 -4.95875 10.47375 -4.9375 9.6875 C-4.87057159 6.89814214 -4.87057159 6.89814214 -6 4 C-4.7934375 3.566875 -4.7934375 3.566875 -3.5625 3.125 C-0.8673532 2.26737432 -0.8673532 2.26737432 0 0 Z M0 5 C-0.33 6.32 -0.66 7.64 -1 9 C-0.01 9 0.98 9 2 9 C2.33 8.01 2.66 7.02 3 6 C2.01 5.67 1.02 5.34 0 5 Z " fill="#121212" transform="translate(56,109)"/>
<path d="M0 0 C2.625 0.375 2.625 0.375 5 1 C6.35384615 7.4 6.35384615 7.4 4.5625 10.4375 C4.046875 10.953125 3.53125 11.46875 3 12 C1.125 11.75 1.125 11.75 -1 11 C-2.80536451 8.59284731 -3.03640669 7.38227026 -2.75 4.375 C-2 2 -2 2 0 0 Z " fill="#0B0B0B" transform="translate(52,42)"/>
<path d="M0 0 C2.5625 0.25 2.5625 0.25 5 1 C6.39935013 3.79870027 6.25265405 5.90498792 6 9 C4.75 10.9375 4.75 10.9375 3 12 C0.86254078 11.74853421 -0.45925779 11.54074221 -2 10 C-2.27314815 4.26388889 -2.27314815 4.26388889 -2 2 C-1.34 1.34 -0.68 0.68 0 0 Z " fill="#0B0B0B" transform="translate(72,42)"/>
<path d="M0 0 C0.66 0 1.32 0 2 0 C2.33 1.65 2.66 3.3 3 5 C4.32 5 5.64 5 7 5 C7 5.99 7 6.98 7 8 C5.68 8.33 4.36 8.66 3 9 C2.67 10.32 2.34 11.64 2 13 C1.34 13 0.68 13 0 13 C-0.33 11.68 -0.66 10.36 -1 9 C-4.69541586 8.04975021 -7.30458414 8.04975021 -11 9 C-11 8.01 -11 7.02 -11 6 C-5.555 5.505 -5.555 5.505 0 5 C0 3.35 0 1.7 0 0 Z " fill="#111111" transform="translate(60,6)"/>
<path d="M0 0 C0.99 0.33 1.98 0.66 3 1 C3 1.99 3 2.98 3 4 C4.65 3.67 6.3 3.34 8 3 C7.67 3.99 7.34 4.98 7 6 C4.9375 6.6875 4.9375 6.6875 3 7 C2.67 9.31 2.34 11.62 2 14 C1.34 13.67 0.68 13.34 0 13 C0 11.68 0 10.36 0 9 C-1.32 9 -2.64 9 -4 9 C-4 8.34 -4 7.68 -4 7 C-2.68 6.67 -1.36 6.34 0 6 C0 4.02 0 2.04 0 0 Z " fill="#151515" transform="translate(80,105)"/>
<path d="M0 0 C0.66 0 1.32 0 2 0 C3.4606285 2.64738916 4 3.89448334 4 7 C2.68 7 1.36 7 0 7 C0.33 8.65 0.66 10.3 1 12 C0.01 12 -0.98 12 -2 12 C-2 10.68 -2 9.36 -2 8 C-3.98 8.99 -3.98 8.99 -6 10 C-7 9 -7 9 -7.0625 6.4375 C-7.041875 5.633125 -7.02125 4.82875 -7 4 C-3.86650268 2.95550089 -3.01031744 3.06576355 0 4 C0 2.68 0 1.36 0 0 Z " fill="#212121" transform="translate(19,60)"/>
<path d="M0 0 C0.66 0 1.32 0 2 0 C2.33 0.99 2.66 1.98 3 3 C4.49985609 4.66710346 4.49985609 4.66710346 6 6 C5.01 6.66 4.02 7.32 3 8 C2.67 8.99 2.34 9.98 2 11 C1.34 11 0.68 11 0 11 C-0.33 10.01 -0.66 9.02 -1 8 C-2.49985609 6.33289654 -2.49985609 6.33289654 -4 5 C-3.01 4.34 -2.02 3.68 -1 3 C-0.67 2.01 -0.34 1.02 0 0 Z " fill="#121212" transform="translate(112,71)"/>
<path d="M0 0 C1.32 0.33 2.64 0.66 4 1 C3.01 2.485 3.01 2.485 2 4 C1.83286431 6.62531524 1.83286431 6.62531524 2 9 C-0.97 8.67 -3.94 8.34 -7 8 C-7 7.01 -7 6.02 -7 5 C-5.0625 4.4375 -5.0625 4.4375 -3 4 C-2.67 4.33 -2.34 4.66 -2 5 C-1.34 3.35 -0.68 1.7 0 0 Z " fill="#171717" transform="translate(112,49)"/>
<path d="M0 0 C-2.04799158 4.60798106 -5.17990126 8.70082381 -9 12 C-9.66 12 -10.32 12 -11 12 C-9.43035549 6.8201731 -5.8629386 0 0 0 Z " fill="#1E1E1E" transform="translate(48,28)"/>
<path d="M0 0 C0.86625 0.495 0.86625 0.495 1.75 1 C4.19883862 2.27075898 4.19883862 2.27075898 8 2 C8.33 1.34 8.66 0.68 9 0 C9.99 0 10.98 0 12 0 C11.34 1.65 10.68 3.3 10 5 C3.53104925 6.34261242 3.53104925 6.34261242 1.0625 4.75 C0 3 0 3 0 0 Z " fill="#141414" transform="translate(58,53)"/>
<path d="M0 0 C1.125 3.75 1.125 3.75 0 6 C-0.99 6 -1.98 6 -3 6 C-2.67 7.32 -2.34 8.64 -2 10 C-5 10 -5 10 -6.6875 8.625 C-8 7 -8 7 -8 5 C-6.576875 4.87625 -6.576875 4.87625 -5.125 4.75 C-1.89538209 4.34925077 -1.89538209 4.34925077 -0.625 1.9375 C-0.41875 1.298125 -0.2125 0.65875 0 0 Z " fill="#181818" transform="translate(24,14)"/>
<path d="M0 0 C2.37163433 0.9299562 4.67615944 1.95199347 7 3 C6.67 3.66 6.34 4.32 6 5 C1.51474352 4.343621 -2.66914029 3.29925791 -7 2 C-7 1.34 -7 0.68 -7 0 C-4.22964542 -1.38517729 -2.98568368 -0.79618231 0 0 Z M7 2 C9 3 9 3 9 3 Z " fill="#0A0A0A" transform="translate(63,102)"/>
<path d="M0 0 C0.99 0 1.98 0 3 0 C3.226875 0.639375 3.45375 1.27875 3.6875 1.9375 C4.85250896 4.27193661 4.85250896 4.27193661 7.625 4.75 C8.40875 4.8325 9.1925 4.915 10 5 C9.67 6.32 9.34 7.64 9 9 C7.02 8.34 5.04 7.68 3 7 C3 6.34 3 5.68 3 5 C1.68 4.67 0.36 4.34 -1 4 C-0.67 2.68 -0.34 1.36 0 0 Z " fill="#373737" transform="translate(24,11)"/>
<path d="M0 0 C-0.66 0 -1.32 0 -2 0 C-2 0.66 -2 1.32 -2 2 C-5.3 3.32 -8.6 4.64 -12 6 C-12.66 5.34 -13.32 4.68 -14 4 C-12.42466914 3.13116294 -10.83935491 2.28040932 -9.25 1.4375 C-8.36828125 0.96183594 -7.4865625 0.48617188 -6.578125 -0.00390625 C-3.79298812 -1.07998186 -2.73019786 -1.06528748 0 0 Z " fill="#151515" transform="translate(60,23)"/>
<path d="M0 0 C1.2065625 0.0309375 1.2065625 0.0309375 2.4375 0.0625 C1.839375 0.26875 1.24125 0.475 0.625 0.6875 C-2.36390701 2.56624155 -3.05885024 4.92444833 -4.5625 8.0625 C-7.5625 10.0625 -7.5625 10.0625 -9.75 9.6875 C-10.348125 9.48125 -10.94625 9.275 -11.5625 9.0625 C-10.5725 8.7325 -9.5825 8.4025 -8.5625 8.0625 C-8.5625 7.4025 -8.5625 6.7425 -8.5625 6.0625 C-6.93800757 4.35470027 -5.27029973 2.68699243 -3.5625 1.0625 C-2.5625 0.0625 -2.5625 0.0625 0 0 Z " fill="#161616" transform="translate(80.5625,96.9375)"/>
<path d="M0 0 C2 0 2 0 3.625 1.5 C4.07875 1.995 4.5325 2.49 5 3 C4 5 3 7 2 9 C1.34 9 0.68 9 0 9 C-0.33 8.01 -0.66 7.02 -1 6 C-1.66 5.34 -2.32 4.68 -3 4 C-2.01 3.67 -1.02 3.34 0 3 C0 2.01 0 1.02 0 0 Z " fill="#151515" transform="translate(15,82)"/>
<path d="M0 0 C0.33 0 0.66 0 1 0 C1.33 4.29 1.66 8.58 2 13 C1.01 13.66 0.02 14.32 -1 15 C-1.22211116 13.06403108 -1.42722992 11.12610672 -1.625 9.1875 C-1.74101563 8.10855469 -1.85703125 7.02960937 -1.9765625 5.91796875 C-2 3 -2 3 0 0 Z " fill="#232323" transform="translate(91,44)"/>
<path d="M0 0 C3.0916909 2.52956528 3.90931332 5.22454612 5 9 C3.02 9 1.04 9 -1 9 C-0.979375 8.236875 -0.95875 7.47375 -0.9375 6.6875 C-0.87057159 3.89814214 -0.87057159 3.89814214 -2 1 C-1.34 0.67 -0.68 0.34 0 0 Z " fill="#202020" transform="translate(52,112)"/>
<path d="M0 0 C0.99 0.33 1.98 0.66 3 1 C3 1.99 3 2.98 3 4 C3.66 4 4.32 4 5 4 C4.67 5.65 4.34 7.3 4 9 C3.01 9.33 2.02 9.66 1 10 C0.67 6.7 0.34 3.4 0 0 Z " fill="#232323" transform="translate(89,72)"/>
<path d="M0 0 C0 0.99 0 1.98 0 3 C-1.4562545 3.67119549 -2.91507867 4.33681807 -4.375 5 C-5.59316406 5.556875 -5.59316406 5.556875 -6.8359375 6.125 C-9 7 -9 7 -11 7 C-11 6.01 -11 5.02 -11 4 C-9.5437455 3.32880451 -8.08492133 2.66318193 -6.625 2 C-5.81289063 1.62875 -5.00078125 1.2575 -4.1640625 0.875 C-2 0 -2 0 0 0 Z " fill="#1A1A1A" transform="translate(48,13)"/>
<path d="M0 0 C0.99 0.33 1.98 0.66 3 1 C2.67 2.32 2.34 3.64 2 5 C1.01 4.67 0.02 4.34 -1 4 C-3.33299825 3.96045766 -5.66708189 3.95598268 -8 4 C-8 3.34 -8 2.68 -8 2 C-6.865625 1.855625 -5.73125 1.71125 -4.5625 1.5625 C-1.19222799 1.38828522 -1.19222799 1.38828522 0 0 Z " fill="#070707" transform="translate(102,75)"/>
<path d="M0 0 C0.66 0 1.32 0 2 0 C3.4606285 2.64738916 4 3.89448334 4 7 C2.35 7.33 0.7 7.66 -1 8 C-1 4.88742431 -0.82638376 2.89234315 0 0 Z " fill="#181818" transform="translate(19,60)"/>
<path d="M0 0 C1.75 0.125 1.75 0.125 4 1 C8 6.22222222 8 6.22222222 8 9 C6.68 8.34 5.36 7.68 4 7 C4 6.01 4 5.02 4 4 C2.68 3.34 1.36 2.68 0 2 C0 1.34 0 0.68 0 0 Z " fill="#151515" transform="translate(95,25)"/>
<path d="M0 0 C0 2.64 0 5.28 0 8 C-0.33 7.01 -0.66 6.02 -1 5 C-2.65 4.67 -4.3 4.34 -6 4 C-6 3.01 -6 2.02 -6 1 C-4 0 -4 0 0 0 Z " fill="#080808" transform="translate(14,59)"/>
<path d="M0 0 C0.66 0 1.32 0 2 0 C2.66 1.65 3.32 3.3 4 5 C3.34 5 2.68 5 2 5 C2 5.66 2 6.32 2 7 C1.34 7 0.68 7 0 7 C0 6.34 0 5.68 0 5 C-0.66 5 -1.32 5 -2 5 C-1.34 3.35 -0.68 1.7 0 0 Z " fill="#101010" transform="translate(27,40)"/>
<path d="M0 0 C0.99 0.33 1.98 0.66 3 1 C1.37660195 2.70884005 -0.29319053 4.37446717 -2 6 C-2.66 6 -3.32 6 -4 6 C-3.6875 4.125 -3.6875 4.125 -3 2 C-2.01 1.34 -1.02 0.68 0 0 Z " fill="#181818" transform="translate(54,103)"/>
<path d="M0 0 C1.98 0.66 3.96 1.32 6 2 C6 2.66 6 3.32 6 4 C6.66 4.33 7.32 4.66 8 5 C5.69 4.67 3.38 4.34 1 4 C0.67 2.68 0.34 1.36 0 0 Z " fill="#161616" transform="translate(24,75)"/>
<path d="M0 0 C0.33 0.66 0.66 1.32 1 2 C-2.465 3.485 -2.465 3.485 -6 5 C-6.66 4.34 -7.32 3.68 -8 3 C-5.08235 1.0549 -3.37462715 0.54723683 0 0 Z " fill="#0F0F0F" transform="translate(27,95)"/>
<path d="M0 0 C0.268125 0.598125 0.53625 1.19625 0.8125 1.8125 C1.98493467 3.97224808 3.19369282 5.35790256 5 7 C3.125 7.625 3.125 7.625 1 8 C-1 6 -1 6 -1.1875 3.4375 C-1 1 -1 1 0 0 Z " fill="#0F0F0F" transform="translate(92,57)"/>
<path d="M0 0 C2.92879371 0.62759865 5.36095629 1.58622659 8 3 C7.67 3.66 7.34 4.32 7 5 C3.74572241 4.43891766 2.12035493 3.54442592 0 1 C0 0.67 0 0.34 0 0 Z " fill="#1F1F1F" transform="translate(102,20)"/>
<path d="M0 0 C0.66 0.99 1.32 1.98 2 3 C2.99 3.66 3.98 4.32 5 5 C4.34 5 3.68 5 3 5 C2.67 5.66 2.34 6.32 2 7 C1.01 6.34 0.02 5.68 -1 5 C-0.67 3.35 -0.34 1.7 0 0 Z " fill="#161616" transform="translate(107,89)"/>
<path d="M0 0 C-0.3125 1.9375 -0.3125 1.9375 -1 4 C-4 5 -4 5 -7 4 C-2.25 0 -2.25 0 0 0 Z " fill="#202020" transform="translate(31,91)"/>
<path d="M0 0 C0.66 0 1.32 0 2 0 C1.42415568 2.38564077 0.77772405 4.66682784 0 7 C-1.32 6.67 -2.64 6.34 -4 6 C-3.525625 5.566875 -3.05125 5.13375 -2.5625 4.6875 C-0.76313043 2.97690387 -0.76313043 2.97690387 0 0 Z " fill="#1B1B1B" transform="translate(112,71)"/>
<path d="M0 0 C1.65 0.33 3.3 0.66 5 1 C3.71034824 2.37562854 2.37310707 3.70766393 1 5 C0.34 5 -0.32 5 -1 5 C-0.67 3.35 -0.34 1.7 0 0 Z " fill="#070707" transform="translate(99,20)"/>
<path d="M0 0 C1.125 3.75 1.125 3.75 0 6 C-1.32 6 -2.64 6 -4 6 C-4 5.34 -4 4.68 -4 4 C-3.34 4 -2.68 4 -2 4 C-1.34 2.68 -0.68 1.36 0 0 Z " fill="#0A0A0A" transform="translate(24,14)"/>
<path d="M0 0 C2 1.375 2 1.375 4 3 C4 3.66 4 4.32 4 5 C2.68 4.67 1.36 4.34 0 4 C0 2.68 0 1.36 0 0 Z " fill="#252525" transform="translate(26,84)"/>
<path d="M0 0 C1.32 0 2.64 0 4 0 C4 0.66 4 1.32 4 2 C2.35 2.66 0.7 3.32 -1 4 C-0.67 2.68 -0.34 1.36 0 0 Z " fill="#212121" transform="translate(90,105)"/>
<path d="M0 0 C0.99 0 1.98 0 3 0 C3.33 1.65 3.66 3.3 4 5 C3.01 4.67 2.02 4.34 1 4 C0.3125 1.9375 0.3125 1.9375 0 0 Z " fill="#131313" transform="translate(102,35)"/>
<path d="M0 0 C2.475 0.99 2.475 0.99 5 2 C5 2.66 5 3.32 5 4 C3.35 3.67 1.7 3.34 0 3 C0 2.01 0 1.02 0 0 Z " fill="#1D1D1D" transform="translate(86,17)"/>
<path d="M0 0 C0.66 0 1.32 0 2 0 C2.66 1.65 3.32 3.3 4 5 C3.01 5 2.02 5 1 5 C0.67 3.35 0.34 1.7 0 0 Z " fill="#121212" transform="translate(22,79)"/>
<path d="M0 0 C0.99 0 1.98 0 3 0 C2.67 1.65 2.34 3.3 2 5 C1.34 5 0.68 5 0 5 C0 3.35 0 1.7 0 0 Z " fill="#141414" transform="translate(16,44)"/>
<path d="M0 0 C0.99 0.33 1.98 0.66 3 1 C2.67 2.32 2.34 3.64 2 5 C1.01 5 0.02 5 -1 5 C-0.67 3.35 -0.34 1.7 0 0 Z " fill="#181818" transform="translate(18,38)"/>
<path d="M0 0 C0.66 0 1.32 0 2 0 C1.67 1.65 1.34 3.3 1 5 C0.01 4.67 -0.98 4.34 -2 4 C-1.34 2.68 -0.68 1.36 0 0 Z " fill="#111111" transform="translate(21,33)"/>
<path d="M0 0 C1.65 0 3.3 0 5 0 C5 0.99 5 1.98 5 3 C3.35 2.67 1.7 2.34 0 2 C0 1.34 0 0.68 0 0 Z " fill="#2A2A2A" transform="translate(74,13)"/>
<path d="M0 0 C0.99 0.33 1.98 0.66 3 1 C3 1.66 3 2.32 3 3 C1.35 3 -0.3 3 -2 3 C-2 2.34 -2 1.68 -2 1 C-1.34 0.67 -0.68 0.34 0 0 Z " fill="#2A2A2A" transform="translate(66,113)"/>
<path d="M0 0 C1.32 0.33 2.64 0.66 4 1 C4 1.99 4 2.98 4 4 C2.68 3.34 1.36 2.68 0 2 C0 1.34 0 0.68 0 0 Z " fill="#171717" transform="translate(91,21)"/>
<path d="M0 0 C2.475 0.495 2.475 0.495 5 1 C5 1.66 5 2.32 5 3 C3.35 2.67 1.7 2.34 0 2 C0 1.34 0 0.68 0 0 Z " fill="#141414" transform="translate(80,15)"/>
<path d="M0 0 C0.66 0.33 1.32 0.66 2 1 C1.67 2.32 1.34 3.64 1 5 C0.34 5 -0.32 5 -1 5 C-0.67 3.35 -0.34 1.7 0 0 Z " fill="#121212" transform="translate(107,63)"/>
<path d="M0 0 C1.65 0 3.3 0 5 0 C5 0.66 5 1.32 5 2 C3.35 2 1.7 2 0 2 C0 1.34 0 0.68 0 0 Z " fill="#272727" transform="translate(70,113)"/>
<path d="M0 0 C0.66 0 1.32 0 2 0 C2 1.65 2 3.3 2 5 C1.34 5 0.68 5 0 5 C0 3.35 0 1.7 0 0 Z " fill="#0B0B0B" transform="translate(107,57)"/>
<path d="M0 0 C1.65 0 3.3 0 5 0 C5 0.66 5 1.32 5 2 C3.35 2 1.7 2 0 2 C0 1.34 0 0.68 0 0 Z " fill="#111111" transform="translate(68,12)"/>
<path d="M0 0 C0.99 0.33 1.98 0.66 3 1 C2.67 1.66 2.34 2.32 2 3 C1.34 3 0.68 3 0 3 C0 2.01 0 1.02 0 0 Z " fill="#050505" transform="translate(113,34)"/>
<path d="M0 0 C0.99 0 1.98 0 3 0 C3 0.66 3 1.32 3 2 C2.01 2 1.02 2 0 2 C0 1.34 0 0.68 0 0 Z " fill="#060606" transform="translate(10,40)"/>
</svg>
